<?xml version="1.0" encoding="UTF-8" standalone="no"?>
<!-- Created with Inkscape (http://www.inkscape.org/) -->

<svg
   xmlns:dc="http://purl.org/dc/elements/1.1/"
   xmlns:cc="http://creativecommons.org/ns#"
   xmlns:rdf="http://www.w3.org/1999/02/22-rdf-syntax-ns#"
   xmlns:svg="http://www.w3.org/2000/svg"
   xmlns="http://www.w3.org/2000/svg"
   xmlns:sodipodi="http://sodipodi.sourceforge.net/DTD/sodipodi-0.dtd"
   xmlns:inkscape="http://www.inkscape.org/namespaces/inkscape"
   width="79.375mm"
   height="17.033638mm"
   viewBox="0 0 79.375 17.033638"
   version="1.1"
   id="svg61"
   inkscape:version="0.92.3 (2405546, 2018-03-11)"
   sodipodi:docname="nobilia_logo.svg">
  <defs
     id="defs55" />
  <sodipodi:namedview
     id="base"
     pagecolor="#ffffff"
     bordercolor="#666666"
     borderopacity="1.0"
     inkscape:pageopacity="0.0"
     inkscape:pageshadow="2"
     inkscape:zoom="0.35"
     inkscape:cx="389.5871"
     inkscape:cy="491.1953"
     inkscape:document-units="mm"
     inkscape:current-layer="layer1"
     showgrid="false"
     fit-margin-top="0"
     fit-margin-left="0"
     fit-margin-right="0"
     fit-margin-bottom="0"
     inkscape:window-width="1920"
     inkscape:window-height="1040"
     inkscape:window-x="1920"
     inkscape:window-y="0"
     inkscape:window-maximized="1" />
  <metadata
     id="metadata58">
    <rdf:RDF>
      <cc:Work
         rdf:about="">
        <dc:format>image/svg+xml</dc:format>
        <dc:type
           rdf:resource="http://purl.org/dc/dcmitype/StillImage" />
        <dc:title></dc:title>
      </cc:Work>
    </rdf:RDF>
  </metadata>
  <g
     inkscape:label="Layer 1"
     inkscape:groupmode="layer"
     id="layer1"
     transform="translate(-2.7550799,-201.28559)">
    <g
       id="g35"
       transform="matrix(0.2894867,0,0,0.2894867,16.381953,152.23272)">
      <path
         style="fill:#906cae;stroke-width:0.08466667"
         d="m 158.05188,200.22304 c -3.43051,-0.57675 -5.39382,-2.53283 -5.8201,-5.79868 -0.26611,-2.0387 0.18146,-4.09133 1.14558,-5.25395 1.46106,-1.76185 3.9542,-2.5753 9.98915,-3.25921 2.45151,-0.27782 3.10229,-0.40052 3.67648,-0.69316 0.56501,-0.28797 0.85319,-0.7585 0.85319,-1.39305 0,-0.53748 -0.1568,-0.89708 -0.53653,-1.23049 -0.43204,-0.37933 -1.03587,-0.54408 -2.17499,-0.5934 -1.92484,-0.0833 -2.92234,0.44717 -3.24906,1.72799 l -0.10413,0.40827 -4.29367,0.0219 c -3.82557,0.0196 -4.2992,0.008 -4.34437,-0.11018 -0.0831,-0.21649 0.11332,-1.47112 0.34403,-2.19776 0.58038,-1.82797 2.05546,-3.30405 4.15868,-4.16153 1.78901,-0.72936 3.66917,-1.04155 6.65589,-1.10515 3.51919,-0.0749 5.90211,0.27445 8.17607,1.19877 1.71539,0.69728 3.09573,2.0456 3.63826,3.55387 0.384,1.06757 0.38815,1.15189 0.44178,8.9807 0.0567,8.27841 0.005,7.60576 0.63993,8.29912 0.25099,0.27401 0.30323,0.39091 0.28281,0.63282 l -0.025,0.29673 h -4.445 -4.445 l -0.24452,-0.9525 c -0.13449,-0.52388 -0.28184,-0.9525 -0.32746,-0.9525 -0.0456,0 -0.35469,0.20324 -0.68682,0.45164 -1.56701,1.17199 -3.16381,1.82999 -5.16041,2.12645 -1.06705,0.15845 -3.2117,0.16013 -4.14476,0.003 z m 7.09263,-5.38916 c 1.40507,-0.3065 2.28494,-1.20952 2.58516,-2.65319 0.13272,-0.63826 0.1561,-2.20142 0.0347,-2.32385 -0.0632,-0.0638 -0.27416,-0.0267 -0.71966,0.1266 -0.34663,0.11925 -1.44007,0.4429 -2.42987,0.71922 -1.92317,0.53688 -2.66004,0.84645 -3.01284,1.26573 -0.68101,0.80933 -0.38712,2.13896 0.59402,2.6875 0.62207,0.34779 1.8345,0.42098 2.94845,0.17799 z m 47.70967,5.42149 c -4.52186,-0.45966 -7.34528,-2.27081 -8.37705,-5.37367 -0.27128,-0.81579 -0.48174,-1.97392 -0.39825,-2.19148 0.0441,-0.11504 0.54203,-0.12756 4.30112,-0.10815 l 4.2512,0.022 0.10057,0.59692 c 0.21593,1.28173 0.8512,1.87325 2.22032,2.06742 1.07137,0.15195 2.34774,-0.12014 2.88638,-0.61531 0.25612,-0.23546 0.51476,-0.78948 0.51718,-1.10787 0.006,-0.7508 -0.4592,-1.33453 -1.32056,-1.65804 -0.27385,-0.10285 -1.50635,-0.41259 -2.73889,-0.68832 -2.51413,-0.56242 -3.11248,-0.71746 -4.44769,-1.15243 -3.11172,-1.0137 -4.6265,-2.35622 -5.07747,-4.50004 -0.16766,-0.79701 -0.16773,-2.45109 0,-3.2964 0.15628,-0.7883 0.73371,-2.00299 1.24233,-2.61336 1.37448,-1.64945 3.81863,-2.67741 7.13133,-2.99929 1.51838,-0.14753 4.74628,-0.059 5.97496,0.16386 1.66029,0.30115 2.78192,0.68807 3.93343,1.35687 0.79433,0.46136 1.90038,1.52713 2.31959,2.23511 0.50406,0.85129 0.91888,2.06181 0.9654,2.81721 l 0.0206,0.33434 h -3.96999 -3.96998 l -0.10817,-0.36633 c -0.22204,-0.75202 -0.84726,-1.35545 -1.68853,-1.62971 -0.48578,-0.15837 -1.68542,-0.13679 -2.21721,0.0399 -1.32338,0.43967 -1.50707,2.01811 -0.30468,2.61807 0.46909,0.23407 0.87347,0.34125 3.24156,0.85923 6.72163,1.47023 8.89553,2.7587 9.62973,5.70756 0.21722,0.87246 0.19114,2.97748 -0.0479,3.86263 -0.28767,1.06545 -0.77327,1.96302 -1.45959,2.69793 -1.5088,1.6156 -3.78576,2.53252 -7.18481,2.89329 -1.25074,0.13275 -4.24293,0.14827 -5.42481,0.0281 z m -27.09333,-0.15851 c -3.12317,-0.42835 -5.36477,-2.14737 -6.21586,-4.76675 -0.56044,-1.72488 -0.65692,-3.53913 -0.62444,-11.7431 l 0.0246,-6.223 h 4.40267 4.40266 l 0.0502,6.51934 c 0.0543,7.05653 0.0595,7.13596 0.52806,8.05443 0.2653,0.52002 0.57751,0.81702 1.1151,1.06075 0.35188,0.15953 0.57367,0.19245 1.31411,0.19504 0.83974,0.003 0.9233,-0.0129 1.45829,-0.27627 0.85213,-0.41951 1.27208,-0.99375 1.61038,-2.20205 0.17714,-0.63273 0.18363,-0.83172 0.2281,-7.00124 l 0.0458,-6.35 h 4.40267 4.40267 v 11.09134 11.09133 h -4.02167 -4.02167 l -0.0219,-1.397 c -0.012,-0.76835 -0.0398,-1.4456 -0.0617,-1.50501 -0.024,-0.065 -0.28287,0.14791 -0.65104,0.5355 -1.4095,1.48384 -3.0072,2.37954 -4.98038,2.79208 -0.76647,0.16025 -2.62756,0.22873 -3.38666,0.12461 z m -58.8708,-0.56337 c -0.0315,-0.0315 -0.0572,-6.8136 -0.0572,-15.07142 v -15.01422 h 4.445 4.445 v 4.948 c 0,2.7214 0.0289,4.96589 0.0643,4.98775 0.0354,0.0219 0.2354,-0.11039 0.4445,-0.2939 1.44685,-1.26973 2.90889,-1.95983 4.74052,-2.23756 2.65884,-0.40316 5.40533,0.22984 7.06834,1.62907 1.476,1.24188 2.21969,2.71231 2.60384,5.14831 0.0802,0.50835 0.10682,2.57837 0.10682,8.29733 v 7.62 h -4.40267 -4.40267 l -0.0464,-6.731 c -0.0498,-7.21131 -0.0403,-7.05675 -0.48322,-7.91633 -0.38759,-0.75226 -1.08635,-1.13843 -2.18383,-1.2069 -1.73126,-0.10801 -2.89003,0.77903 -3.34626,2.56156 -0.0811,0.31671 -0.12059,2.04406 -0.15696,6.858 l -0.0486,6.43467 -4.36663,0.0219 c -2.40166,0.0121 -4.39238,-0.004 -4.42383,-0.0353 z M -20.937963,174.04876 c -0.03146,-0.0315 -0.0572,-1.07955 -0.0572,-2.32909 v -2.27189 h 4.446361 4.44636 l -0.02253,2.30717 -0.02253,2.30716 -4.366635,0.0219 c -2.401649,0.0121 -4.392374,-0.004 -4.423834,-0.0353 z m 15.1553341,-0.0847 c -0.031459,-0.0315 -0.057198,-1.0605 -0.057198,-2.28675 v -2.22956 h 4.4463828 4.4463836 l -0.02255,2.26483 -0.022549,2.26484 -4.3666352,0.0219 c -2.4016488,0.012 -4.3923739,-0.004 -4.4238335,-0.0353 z"
         id="path41"
         inkscape:connector-curvature="0"
         sodipodi:nodetypes="cccccsccccccccccccccccccsccccccccccscccccccccccccscccccccccccccccccccccccccccccccccccccccccccccccccscccsccsccscccccscccccccscccccccccscccccccc" />
      <path
         style="fill:#6e6f71;stroke-width:0.08466667"
         d="m -15.534161,228.20632 c -2.174237,-0.32701 -3.699126,-1.70177 -4.291624,-3.8691 -0.263598,-0.96423 -0.262355,-3.23608 0.0023,-4.21644 0.303512,-1.12427 0.715115,-1.86049 1.445299,-2.58518 0.986494,-0.97907 1.928828,-1.39008 3.425083,-1.49387 2.532116,-0.17565 4.707569,1.38173 5.3430745,3.82505 0.1666172,0.64059 0.3208156,1.92625 0.2843302,2.37067 l -0.027803,0.33866 -4.3365987,0.0219 c -4.023441,0.0204 -4.342008,0.0326 -4.41151,0.16933 -0.126339,0.24859 0.117589,1.3526 0.445403,2.01589 0.37861,0.76607 1.096514,1.46013 1.801611,1.74179 0.401655,0.16045 0.64969,0.19588 1.378761,0.19693 0.789676,0.001 0.943581,-0.0242 1.37752,-0.22688 0.600858,-0.28064 1.213227,-0.89507 1.522547,-1.52765 0.128187,-0.26215 0.261537,-0.49313 0.296334,-0.51327 0.04847,-0.0281 0.8329,0.0572 1.777766,0.19321 0.098078,0.0141 -0.035182,0.43468 -0.3146577,0.99306 -0.9873763,1.97272 -3.1648203,2.94984 -5.7178423,2.56586 z m 4.224072,-7.24527 c 0.02815,-0.0734 -0.0028,-0.39249 -0.06887,-0.70917 -0.328549,-1.57573 -1.483283,-2.60747 -3.017724,-2.6963 -1.759063,-0.10183 -3.19923,1.01033 -3.55808,2.74771 -0.177548,0.8596 -0.462851,0.79116 3.297883,0.79116 2.921524,0 3.301409,-0.0151 3.346787,-0.1334 z m 11.07296864,7.2423 c -2.89770494,-0.36572 -4.79940554,-1.61089 -5.94347404,-3.89157 -0.6654546,-1.32657 -0.9292328,-2.56433 -0.9292328,-4.36033 0,-2.70845 0.7417757,-4.70575 2.2972464,-6.18552 1.5113263,-1.43779 3.0145601,-1.99455 5.72888549,-2.12185 1.36682401,-0.0641 3.20303411,0.0709 4.10655871,0.30202 1.3577071,0.34725 2.6768197,1.3029 3.3167211,2.40287 0.3373349,0.57986 0.7388522,1.59784 0.6607827,1.6753 -0.070608,0.0701 -4.1688031,0.83684 -4.4726286,0.83684 -0.1307236,0 -0.2254521,-0.0967 -0.3369454,-0.34394 -0.3966904,-0.8797 -1.3136736,-1.43209 -2.4851555,-1.49704 -1.95932648,-0.10863 -3.2404661,0.88497 -3.7929102,2.94165 -0.1147564,0.42722 -0.1465131,0.87232 -0.1419615,1.98967 0.00638,1.56606 0.1394046,2.30472 0.5670246,3.14859 0.95475469,1.88412 3.4486783,2.35186 5.9448321,1.11496 0.4840563,-0.23986 0.7335647,-0.41384 0.7632793,-0.53223 0.024281,-0.0967 0.032849,-0.48056 0.019042,-0.85294 l -0.025104,-0.67705 -1.6510001,-0.0423 -1.651,-0.0423 v -1.56633 -1.56633 l 3.7888335,-0.022 3.7888334,-0.022 v 3.42474 3.42475 l -0.7778538,0.48116 c -1.6653308,1.03013 -3.0416739,1.58619 -4.5984797,1.85786 -0.9207289,0.16066 -3.31965228,0.23159 -4.17629356,0.12347 z m 17.10886236,-0.006 c -1.556592,-0.18107 -2.552251,-0.63509 -3.503262,-1.59749 -0.510195,-0.51631 -0.728374,-0.82117 -1.037671,-1.44994 -0.534941,-1.08748 -0.67766,-1.83273 -0.62248,-3.25049 0.07047,-1.81057 0.494323,-2.84763 1.627644,-3.98243 1.423586,-1.42544 3.333052,-1.98444 5.985972,-1.7524 1.993561,0.17437 3.140411,0.63124 4.182951,1.66637 1.062524,1.05497 1.588466,2.47157 1.655869,4.46001 l 0.02974,0.87744 -4.503029,0.0219 c -5.174474,0.0252 -4.724735,-0.067 -4.423998,0.90667 0.52558,1.70163 2.609072,2.21981 3.924231,0.97599 l 0.433317,-0.40981 2.060055,0.19916 c 1.13303,0.10953 2.081213,0.22031 2.107074,0.24617 0.08626,0.0863 -0.579171,0.9936 -1.118259,1.52479 -0.619149,0.61007 -1.435494,1.06808 -2.33554,1.31035 -1.18318,0.31848 -3.011942,0.42245 -4.462616,0.2537 z m 3.845205,-7.15096 c 0.08714,-0.22709 -0.236112,-1.22311 -0.516372,-1.59104 -0.14702,-0.19301 -0.436979,-0.44618 -0.644355,-0.5626 -0.517447,-0.29048 -1.638654,-0.305 -2.155046,-0.0279 -0.349795,0.1877 -0.683553,0.50634 -0.916067,0.87457 -0.173864,0.27535 -0.402197,1.15603 -0.34104,1.3154 0.04009,0.10447 0.398857,0.12393 2.284822,0.12393 1.950845,0 2.243768,-0.0169 2.288058,-0.13236 z m 43.426578,7.16061 c -1.411241,-0.25647 -2.277025,-0.83712 -2.814963,-1.88787 -0.433036,-0.84587 -0.3503,-2.26208 0.181364,-3.10429 0.561967,-0.89021 1.326727,-1.22404 4.175109,-1.82249 2.204271,-0.46313 3.802964,-0.93907 3.925891,-1.16876 0.0586,-0.10949 0.05419,-0.2898 -0.01403,-0.57417 -0.190297,-0.79325 -0.780423,-1.08047 -2.035404,-0.99068 -0.781718,0.0559 -1.408523,0.36214 -1.690878,0.82604 -0.115189,0.18925 -0.24754,0.39532 -0.294106,0.45793 -0.08086,0.1087 -0.604825,0.0615 -4.096241,-0.36865 -0.0802,-0.01 0.08454,-0.64553 0.275276,-1.06214 0.566116,-1.23656 1.611241,-1.90509 3.524631,-2.25458 0.934509,-0.17069 4.115935,-0.14458 5.164667,0.0424 1.754531,0.31281 2.736063,1.10458 3.244486,2.61722 0.165363,0.492 0.179866,0.76786 0.223436,4.25147 l 0.04659,3.72533 0.221335,0.52613 c 0.121743,0.28937 0.200923,0.54654 0.175972,0.5715 -0.02496,0.025 -0.936515,0.0454 -2.025693,0.0454 h -1.980319 l -0.157878,-0.35983 c -0.08683,-0.19791 -0.184184,-0.50271 -0.216332,-0.67733 -0.03465,-0.18823 -0.106807,-0.3175 -0.177216,-0.3175 -0.06533,0 -0.325594,0.16845 -0.578375,0.37435 -0.557183,0.45383 -1.331053,0.82876 -2.100284,1.01756 -0.672592,0.16509 -2.380606,0.24139 -2.977041,0.133 z m 4.023809,-2.55687 c 1.005527,-0.46034 1.419124,-1.1046 1.495552,-2.32958 0.03738,-0.59921 0.02351,-0.70642 -0.09741,-0.75282 -0.196646,-0.0755 -2.881714,0.68754 -3.39653,0.96518 -0.755024,0.40717 -0.99535,1.25157 -0.526034,1.84822 0.45422,0.57744 1.587034,0.69816 2.524422,0.269 z m 46.501146,2.558 c -0.89936,-0.1926 -1.42398,-0.67459 -1.66099,-1.52604 -0.0454,-0.16299 -0.106,-2.25849 -0.13473,-4.65667 l -0.0523,-4.36033 -0.6985,-0.0246 -0.6985,-0.0246 v -0.67048 -0.67049 l 0.6985,-0.0246 0.6985,-0.0246 0.0232,-1.45584 0.0232,-1.45584 0.84862,-0.51266 c 0.46674,-0.28196 0.88425,-0.51266 0.92779,-0.51266 0.0462,0 0.0886,0.81996 0.1019,1.9685 l 0.0227,1.9685 0.9525,0.0239 0.9525,0.0239 v 0.67179 0.67179 l -0.9525,0.0239 -0.9525,0.0239 v 4.12591 4.12591 l 0.2736,0.27355 c 0.25329,0.25326 0.32554,0.27694 0.97366,0.31909 l 0.70008,0.0455 0.0977,0.46566 c 0.14966,0.7136 0.13951,1.07276 -0.0322,1.13866 -0.24645,0.0946 -1.73747,0.12897 -2.11216,0.0487 z m 7.68346,-0.0406 c -1.68893,-0.32129 -3.03604,-1.49066 -3.64757,-3.16629 -0.34261,-0.93877 -0.45397,-1.85039 -0.39842,-3.2617 0.0553,-1.40572 0.19304,-2.01051 0.69787,-3.06503 0.82077,-1.71445 2.4129,-2.6164 4.61169,-2.61254 1.8024,0.003 3.07786,0.62659 3.8986,1.90559 0.31695,0.49394 0.69456,1.53058 0.59411,1.63103 -0.0393,0.0393 -0.41883,0.11924 -0.84336,0.17761 -0.85228,0.11718 -0.85513,0.1161 -1.01672,-0.38602 -0.24421,-0.75881 -0.96919,-1.46641 -1.77074,-1.72829 -0.62357,-0.20373 -1.61269,-0.13418 -2.25157,0.1583 -1.40332,0.64247 -2.08165,2.05059 -2.08165,4.32123 0,2.85996 1.08358,4.46268 3.11113,4.60165 1.52674,0.10464 2.66702,-0.661 3.11706,-2.09296 0.28744,-0.91463 0.1624,-0.833 1.09329,-0.71372 0.45021,0.0577 0.84118,0.12749 0.86881,0.15512 0.078,0.078 -0.21622,1.05135 -0.49389,1.63372 -0.49219,1.03233 -1.58733,1.97392 -2.69496,2.31712 -0.72874,0.2258 -1.97191,0.2815 -2.79368,0.12518 z m 24.58924,0.0385 c -2.17424,-0.32701 -3.69913,-1.70177 -4.29163,-3.8691 -0.26359,-0.96423 -0.26235,-3.23608 0.002,-4.21644 0.30351,-1.12427 0.71511,-1.86049 1.44529,-2.58518 0.9865,-0.97907 1.92884,-1.39008 3.42509,-1.49387 2.53211,-0.17565 4.70757,1.38173 5.34307,3.82505 0.16662,0.64059 0.32082,1.92625 0.28433,2.37067 l -0.0278,0.33866 -4.3366,0.0219 c -4.02344,0.0204 -4.342,0.0326 -4.41151,0.16933 -0.12634,0.24859 0.11759,1.3526 0.44541,2.01589 0.3786,0.76607 1.09651,1.46013 1.8016,1.74179 0.40166,0.16045 0.64969,0.19588 1.37877,0.19693 0.78967,10e-4 0.94357,-0.0242 1.37751,-0.22688 0.60087,-0.28064 1.21324,-0.89507 1.52256,-1.52765 0.12818,-0.26216 0.26153,-0.49313 0.29633,-0.51327 0.0485,-0.0281 0.8329,0.0572 1.77776,0.19321 0.0981,0.0141 -0.0352,0.43468 -0.31465,0.99306 -0.98738,1.97272 -3.16483,2.94984 -5.71785,2.56586 z m 4.22407,-7.24527 c 0.0282,-0.0734 -0.003,-0.39249 -0.0689,-0.70917 -0.32855,-1.57573 -1.48328,-2.60747 -3.01772,-2.6963 -1.75906,-0.10183 -3.19923,1.01033 -3.55808,2.74771 -0.17755,0.8596 -0.46285,0.79116 3.29788,0.79116 2.92153,0 3.30141,-0.0152 3.34679,-0.1334 z m -192.779578,6.97023 c -0.02192,-0.0582 -0.0493,-3.30623 -0.06084,-7.21783 l -0.02099,-7.112 h -2.688189 -2.688189 l 1.3e-5,-0.93134 1.3e-5,-0.93133 6.392343,0.0222 6.392343,0.0222 v 0.88795 0.88794 h -2.621688 c -2.505333,0 -2.625578,0.007 -2.709333,0.16377 -0.05841,0.10914 -0.08765,2.52377 -0.08765,7.239 v 7.07523 h -0.933991 c -0.669494,0 -0.945276,-0.03 -0.973842,-0.10583 z m 9.527833,-8.02217 v -8.128 h 0.889 0.889 v 2.79666 c 0,2.33808 0.01972,2.80422 0.120254,2.8428 0.06778,0.026 0.335391,-0.12908 0.613321,-0.35546 0.271188,-0.22089 0.690343,-0.49193 0.931455,-0.60231 1.871664,-0.85688 4.403533,-0.37205 5.340348,1.02261 0.624145,0.92919 0.712615,1.79912 0.681302,6.69937 l -0.02435,3.81 h -0.889 -0.889 l -0.04457,-4.27567 c -0.05076,-4.86976 -0.04018,-4.79241 -0.752755,-5.50366 -1.315598,-1.31317 -4.052917,-0.61127 -4.735984,1.2144 -0.282174,0.75417 -0.347963,1.75664 -0.349559,5.32643 l -0.0015,3.28083 h -0.889 -0.889 z m 59.605336,2.2859 v -5.84496 l 2.010833,0.0227 2.010834,0.0227 0.04233,0.8399 c 0.04772,0.94673 0.150866,1.09118 0.412701,0.57794 0.818523,-1.60444 2.22393,-2.07666 4.095799,-1.37619 0.267758,0.1002 0.486833,0.22215 0.486833,0.27101 0,0.10773 -1.182906,2.87579 -1.27116,2.97458 -0.03435,0.0384 -0.264605,0.01 -0.51168,-0.0635 -1.376093,-0.40866 -2.243942,0.18537 -2.674832,1.83089 -0.111347,0.42522 -0.149972,1.1428 -0.190496,3.53903 l -0.05083,3.00567 -2.180167,0.0226 -2.180166,0.0226 z m 11.260667,-10e-4 v -5.84353 l 2.010833,0.0227 2.010834,0.0227 0.02434,0.78317 c 0.01736,0.55857 0.0548,0.78317 0.130539,0.78317 0.05841,0 0.276056,-0.174 0.483659,-0.38667 1.12936,-1.1569 2.788869,-1.67923 4.447489,-1.39984 1.073159,0.18078 1.711833,0.59582 2.500368,1.62484 l 0.220395,0.28761 0.541605,-0.50166 c 1.207753,-1.11868 1.989252,-1.43556 3.547271,-1.43838 0.729632,-0.001 1.090379,0.0377 1.439333,0.15574 1.265665,0.42809 1.928656,1.14449 2.357044,2.54692 0.107061,0.35051 0.134908,1.18144 0.161061,4.80671 l 0.03163,4.38294 -2.185035,-0.0226 -2.185035,-0.0226 -0.04233,-3.72534 c -0.0423,-3.72235 -0.04249,-3.72558 -0.240199,-4.04358 -0.265803,-0.42751 -0.812521,-0.74008 -1.294469,-0.74008 -0.475217,0 -1.047064,0.28551 -1.356648,0.67733 -0.451358,0.57128 -0.49535,0.97899 -0.49535,4.59122 v 3.28564 l -2.180167,-0.0226 -2.180167,-0.0226 -0.04233,-3.76767 c -0.03065,-2.72763 -0.07066,-3.81704 -0.144933,-3.94655 -0.180763,-0.31518 -0.688822,-0.70002 -1.001623,-0.7587 -1.092412,-0.20494 -1.945962,0.50189 -2.156156,1.78553 -0.04564,0.2787 -0.08319,1.9069 -0.08346,3.61822 l -4.91e-4,3.1115 h -2.159 -2.159 v -5.84353 z m 38.054815,5.73916 c -0.02255,-0.059 -0.03113,-2.67904 -0.01908,-5.82229 l 0.02193,-5.715 2.010833,-0.0227 2.010834,-0.0227 v 0.85085 c 0,1.05363 0.09252,1.13751 0.608313,0.55154 0.501396,-0.56963 1.443812,-1.20326 2.083486,-1.40083 1.146869,-0.35423 2.605058,-0.30185 3.549667,0.12751 0.557225,0.25329 1.252474,0.89852 1.504543,1.39632 0.505062,0.99743 0.499305,0.9352 0.531402,5.73928 l 0.02957,4.42527 -2.184992,-0.0226 -2.184993,-0.0226 -0.04233,-3.683 c -0.02328,-2.02565 -0.07654,-3.7592 -0.118355,-3.85233 -0.31231,-0.69566 -0.916534,-1.03037 -1.711875,-0.94828 -0.762322,0.0787 -1.296535,0.53475 -1.578314,1.34744 -0.06263,0.18063 -0.112819,1.48053 -0.143121,3.70717 l -0.04667,3.429 -2.139933,0.0226 c -1.666139,0.0176 -2.149001,-0.001 -2.18092,-0.0847 z m 15.539187,-8.02363 v -8.128 h 0.973666 0.973667 v 3.98199 c 0,3.66903 0.01131,3.98633 0.143874,4.0372 0.109542,0.042 1.097822,-0.90838 4.140675,-3.98199 l 3.996788,-4.0372 h 1.278 c 0.7029,0 1.278,0.0288 1.278,0.0641 0,0.0352 -1.44975,1.47014 -3.22166,3.18865 -1.77192,1.7185 -3.256436,3.18953 -3.298947,3.26896 -0.06146,0.11483 0.632875,1.10824 3.390997,4.85159 1.90755,2.58895 3.46827,4.74668 3.46827,4.79495 0,0.0566 -0.44468,0.0877 -1.25297,0.0877 h -1.25297 l -2.87453,-4.08516 c -1.794231,-2.5499 -2.926504,-4.08517 -3.012821,-4.08517 -0.07606,0 -0.73329,0.58015 -1.4605,1.28922 l -1.322206,1.28923 v 2.79594 2.79594 H 93.347176 92.37351 Z m 15.11073,8.02515 c -0.0229,-0.0598 -0.0317,-2.69961 -0.0196,-5.86615 l 0.0219,-5.75733 h 0.889 0.889 v 5.842 5.842 l -0.86935,0.0241 c -0.6481,0.018 -0.87992,-0.004 -0.91092,-0.0847 z m 22.81994,-8.02515 v -8.128 h 0.889 0.889 v 2.79666 c 0,2.33808 0.0197,2.80422 0.12025,2.8428 0.0678,0.026 0.33539,-0.12908 0.61333,-0.35546 0.27118,-0.22089 0.69033,-0.49193 0.93145,-0.60231 1.87166,-0.85688 4.40353,-0.37205 5.34035,1.02261 0.62414,0.92919 0.71261,1.79912 0.6813,6.69937 l -0.0243,3.81 h -0.889 -0.889 l -0.0446,-4.27567 c -0.0507,-4.86976 -0.0402,-4.79241 -0.75275,-5.50366 -1.3156,-1.31317 -4.05292,-0.61127 -4.73598,1.2144 -0.28218,0.75417 -0.34797,1.75664 -0.34957,5.32643 l -0.001,3.28083 h -0.889 -0.889 z m 25.48467,2.24367 v -5.88433 h 0.80433 0.80433 v 0.71467 c 0,0.41475 0.0379,0.73808 0.0903,0.77046 0.0497,0.0307 0.34493,-0.19003 0.65617,-0.49049 0.95101,-0.91809 1.70552,-1.20507 3.14822,-1.19744 0.77687,0.004 1.0849,0.0433 1.524,0.19407 1.11291,0.38204 1.7529,0.9862 2.14669,2.02651 0.17647,0.46623 0.18235,0.61181 0.20621,5.11538 l 0.0246,4.6355 h -0.88803 -0.88803 l -0.0286,-4.21216 c -0.025,-3.67553 -0.0468,-4.2661 -0.17127,-4.6355 -0.19672,-0.58368 -0.57108,-1.0044 -1.1441,-1.28579 -0.4285,-0.21042 -0.57897,-0.23821 -1.28944,-0.23821 -0.69938,0 -0.86881,0.0302 -1.29844,0.23147 -0.68698,0.32184 -1.08499,0.65952 -1.34893,1.14447 -0.48598,0.89292 -0.50664,1.08901 -0.54857,5.20689 l -0.0386,3.78883 h -0.88042 -0.88041 z m -48.30688,-8.3633 c -0.0241,-0.0628 -0.033,-0.5309 -0.0196,-1.04014 l 0.0242,-0.92589 h 0.889 0.889 v 1.016 1.016 l -0.86935,0.0241 c -0.6687,0.0186 -0.87947,-0.002 -0.91319,-0.0901 z"
         id="path39"
         inkscape:connector-curvature="0"
         sodipodi:nodetypes="cscscsscccsccccccccccccsscccsscccccscscssccscccccccccscccccsscsscccscccccccccsccccscccccccccccccccscccscccscccccccccccccccccccccccsccccccccccccccccccsccccsccccscccscsccccccccccccsccccccccccccscccccccccccccscscsccccccsccccscccsccccccccccccscsccssccccccccssccscccccccccccscscccccccsccccccccccsccccscccsccccccccccccscccssccsssccscccccccccccccccccccccsccccccccccccccccccccsccccccccccccsccccccccccccccccc" />
      <path
         style="fill:#010101;stroke-width:0.08466667"
         d="m 32.07122,200.17226 c -1.768353,-0.17057 -3.633957,-0.70125 -5.084384,-1.44628 -2.426866,-1.24659 -4.225675,-3.34048 -5.092131,-5.92744 -0.487751,-1.45627 -0.593664,-2.23866 -0.593664,-4.38543 0,-2.14811 0.09278,-2.83671 0.585655,-4.34659 1.529309,-4.68491 5.913124,-7.42247 11.885282,-7.422 5.281215,4.1e-4 9.357458,2.01288 11.061078,5.46093 0.428498,0.86727 0.77382,2.06822 0.856251,2.97788 l 0.05623,0.62045 h -4.325849 -4.325837 l -0.0533,-0.3175 c -0.209791,-1.24971 -0.727965,-2.00112 -1.69004,-2.45075 -0.471495,-0.22036 -0.584053,-0.23742 -1.566334,-0.23742 -0.986986,0 -1.093849,0.0164 -1.58516,0.24335 -1.621962,0.7492 -2.313909,2.6452 -2.197731,6.02199 0.06843,1.98902 0.308974,3.02546 0.91161,3.92792 0.647603,0.96979 1.675966,1.42343 3.040615,1.34129 1.362534,-0.082 2.202503,-0.59625 2.74491,-1.68046 0.163703,-0.32722 0.320343,-0.73516 0.348089,-0.90652 0.02775,-0.17136 0.08547,-0.39764 0.128266,-0.50285 l 0.07782,-0.19128 4.25596,0.022 4.255956,0.022 0.0255,0.21944 c 0.04122,0.3548 -0.3101,1.91717 -0.611615,2.71988 -0.435136,1.15847 -0.997204,2.02015 -1.953887,2.99543 -1.189855,1.21298 -2.399504,1.95368 -4.135112,2.53202 -2.048375,0.68257 -4.612941,0.94203 -7.018176,0.71004 z m 52.154672,0 c -5.65459,-0.5454 -9.511462,-3.92759 -10.399006,-9.11916 -0.207882,-1.21599 -0.223943,-3.44698 -0.03404,-4.72599 0.895376,-6.03004 5.589033,-9.68266 12.442326,-9.68266 5.27155,0 9.209304,2.22302 11.173105,6.30766 0.865056,1.79929 1.399896,4.30965 1.399896,6.57064 v 0.75303 h -8.09123 c -5.737818,0 -8.142013,0.0272 -8.265795,0.0934 -0.158547,0.0848 -0.169418,0.14369 -0.11844,0.6412 0.176115,1.719 1.070076,3.05319 2.394407,3.57353 0.975783,0.38339 2.428579,0.38676 3.440989,0.008 0.543653,-0.20341 1.331442,-0.87067 1.495476,-1.26669 l 0.105799,-0.25543 h 4.138397 c 3.764678,0 4.138397,0.0124 4.138397,0.13767 0,0.24169 -0.603479,1.6561 -0.964015,2.25942 -1.429842,2.39267 -3.938423,3.90482 -7.460319,4.49702 -1.653938,0.27811 -3.809772,0.36135 -5.395951,0.20836 z m 6.016278,-14.41399 c 0.04537,-0.39663 -0.230759,-1.45394 -0.542357,-2.0768 -0.169173,-0.33816 -0.453263,-0.73161 -0.677452,-0.93827 -1.334872,-1.23044 -3.846543,-1.31125 -5.287341,-0.17012 -0.443916,0.35159 -0.977722,1.1742 -1.1737,1.80869 -0.187909,0.60839 -0.306324,1.43765 -0.224248,1.57045 0.03985,0.0645 1.223924,0.0853 3.967124,0.0699 l 3.910314,-0.022 z m -104.941501,14.13418 c -1.616098,-0.30668 -2.95754,-1.00115 -4.020596,-2.0815 -1.174484,-1.19358 -1.788832,-2.71086 -2.017615,-4.98297 -0.05374,-0.53368 -0.08829,-3.70621 -0.08829,-8.10684 v -7.23003 h 4.314158 4.314157 l 0.02966,6.62517 c 0.02703,6.03944 0.04292,6.67008 0.179657,7.13317 0.19177,0.64946 0.474518,1.13474 0.856621,1.47023 0.532879,0.46787 0.823981,0.55109 1.9474184,0.5567 0.9278544,0.005 1.0574867,-0.0144 1.494194,-0.21913 0.856223,-0.40143 1.3870458,-1.10828 1.7390847,-2.3158 0.1340358,-0.45976 0.1506965,-1.11308 0.1754268,-6.87917 l 0.027325,-6.37117 h 4.3144848 4.3144848 v 10.96434 10.96433 h -3.9370001 -3.9370002 v -1.47667 c 0,-0.8787 -0.03379,-1.49755 -0.083445,-1.52824 -0.045894,-0.0284 -0.4554694,0.32431 -0.9101667,0.78372 -1.3091626,1.32273 -2.6433417,2.1089 -4.3426115,2.55887 -0.911977,0.2415 -3.403155,0.31845 -4.369947,0.13499 z m 28.163505,-0.0977 c -1.445741,-0.16686 -1.919295,-0.25314 -2.568957,-0.46801 -0.411741,-0.13618 -0.9209291,-0.34858 -1.1315281,-0.472 -0.6125566,-0.35898 -1.2033835,-1.01126 -1.5154343,-1.67307 -0.6013112,-1.27527 -0.5738081,-0.91762 -0.6235193,-8.1082 -0.02948,-4.26426 -0.074705,-6.52378 -0.1317142,-6.58075 -0.050738,-0.0507 -0.7016826,-0.0964 -1.5663334,-0.11001 l -1.4795145,-0.0232 -0.022456,-2.42881 -0.022456,-2.42881 1.5184476,-0.0265 c 0.835147,-0.0146 1.550102,-0.0582 1.5887904,-0.097 0.038688,-0.0388 0.081133,-1.57228 0.094323,-3.40783 l 0.023982,-3.33736 h 4.2728508 4.272852 l 0.0013,3.28084 c 7.62e-4,1.91622 0.03464,3.33365 0.08147,3.40783 0.06678,0.10579 0.413225,0.13126 2.074328,0.15252 l 1.994159,0.0255 -0.02246,2.42981 -0.02246,2.42981 -1.98566,0.0228 c -1.458958,0.0167 -2.003223,0.0504 -2.05187,0.127 -0.03641,0.0573 -0.06679,2.14519 -0.06751,4.63969 -0.0015,5.154 0.0017,5.18485 0.591028,5.68927 0.496568,0.42504 0.824427,0.50283 2.308543,0.5477 l 1.334535,0.0404 -0.0222,3.10261 -0.0222,3.10261 -0.762,0.0532 c -0.988798,0.0691 -5.753221,0.1545 -6.138333,0.11005 z m -60.536688,-15.29745 1.9e-5,-14.96483 h 4.35848 4.358479 l 0.0028,7.21451 c 0.0015,3.98646 0.0358,7.24755 0.07659,7.28834 0.09511,0.0951 0.05005,0.14521 3.117954,-3.46722 l 2.606057,-3.06861 4.804833,-0.004 c 2.642658,-0.002 4.804834,0.0274 4.804834,0.0659 0,0.0386 -1.771651,1.83255 -3.937001,3.98663 -2.16535,2.15408 -3.937,3.96661 -3.937,4.02783 0,0.0612 1.994352,3.09641 4.431892,6.74487 2.437541,3.64846 4.499323,6.73834 4.581738,6.8664 l 0.149846,0.23283 -5.153238,-6.8e-4 -5.153238,-6.3e-4 -2.074333,-3.40223 c -2.4561,-4.02838 -2.682632,-4.38579 -2.77977,-4.38579 -0.04077,0 -0.403129,0.33337 -0.805242,0.74083 l -0.731115,0.74083 -9.39e-4,3.15233 -9.34e-4,3.15233 -4.360353,0.0227 -4.360352,0.0227 z m 94.996488,-0.0212 0.0014,-14.94366 4.338236,-2e-5 4.338244,-1e-5 -0.02252,4.91372 c -0.01518,3.31332 0.0064,4.96785 0.06643,5.07991 0.08212,0.15344 0.154373,0.11115 0.94234,-0.55155 0.979466,-0.82375 2.299411,-1.52929 3.416419,-1.82616 0.95443,-0.25366 3.315394,-0.32461 4.419176,-0.1328 1.60639,0.27915 2.93569,0.93213 3.96594,1.94815 1.406364,1.38694 2.012653,2.96094 2.235835,5.80451 0.05247,0.66848 0.08938,3.92899 0.08938,7.89517 v 6.75641 h -4.318 -4.318 l -0.0014,-5.99017 c -8.47e-4,-3.29459 -0.03782,-6.33504 -0.08225,-6.75656 -0.129294,-1.22676 -0.35941,-1.84707 -0.876181,-2.36186 -0.599703,-0.5974 -1.111047,-0.75575 -2.283511,-0.70715 -0.658791,0.0273 -0.967359,0.0818 -1.304366,0.23019 -0.542316,0.23886 -1.147538,0.86694 -1.430071,1.48407 -0.477444,1.04287 -0.480483,1.08891 -0.518702,7.85731 l -0.03526,6.24417 H 52.234888 47.92267 Z m 53.000866,3.97934 V 177.4911 h 3.937 3.937 v 1.47667 c 0,0.90695 0.0331,1.49715 0.0859,1.52975 0.0472,0.0292 0.3755,-0.2548 0.72948,-0.63109 1.23997,-1.3181 2.70672,-2.22101 4.34931,-2.67739 1.08611,-0.30176 3.35917,-0.38651 4.51886,-0.16849 2.91559,0.54814 4.99315,2.38361 5.72419,5.05716 0.42662,1.56024 0.44697,1.97511 0.48635,9.91256 l 0.0369,7.4295 h -4.31873 -4.31873 l -0.0351,-6.45583 c -0.0313,-5.75688 -0.0511,-6.52416 -0.18248,-7.08692 -0.25806,-1.10516 -0.67857,-1.70957 -1.42375,-2.04639 -0.38917,-0.17591 -0.57281,-0.20119 -1.46112,-0.20119 -0.92235,0 -1.06012,0.0207 -1.49482,0.22448 -0.862,0.40412 -1.41443,1.15888 -1.73671,2.37277 -0.12549,0.47267 -0.14601,1.27703 -0.17514,6.86425 l -0.033,6.32883 h -4.31267 -4.31267 z"
         id="path37"
         inkscape:connector-curvature="0" />
    </g>
  </g>
</svg>
